# Blender v2.67 (sub 0) OBJ File: 'Round Shield 4.blend'
# www.blender.org
v 0.000000 -1.000000 -1.000000
v 0.195090 -1.000000 -0.980785
v 0.382683 -1.000000 -0.923880
v 0.555570 -1.000000 -0.831470
v 0.707107 -1.000000 -0.707107
v 0.831470 -1.000000 -0.555570
v 0.923880 -1.000000 -0.382683
v 0.980785 -1.000000 -0.195090
v 1.000000 -1.000000 -0.000000
v 0.000000 1.000000 0.000000
v 0.980785 -1.000000 0.195090
v 0.923880 -1.000000 0.382683
v 0.831470 -1.000000 0.555570
v 0.707107 -1.000000 0.707107
v 0.555570 -1.000000 0.831470
v 0.382683 -1.000000 0.923880
v 0.195090 -1.000000 0.980785
v -0.000000 -1.000000 1.000000
v -0.195091 -1.000000 0.980785
v -0.382684 -1.000000 0.923879
v -0.555571 -1.000000 0.831469
v -0.707107 -1.000000 0.707106
v -0.831470 -1.000000 0.555570
v -0.923880 -1.000000 0.382683
v -0.980785 -1.000000 0.195089
v -1.000000 -1.000000 -0.000001
v -0.980785 -1.000000 -0.195091
v -0.923879 -1.000000 -0.382684
v -0.831469 -1.000000 -0.555571
v -0.707106 -1.000000 -0.707108
v -0.555569 -1.000000 -0.831470
v -0.382682 -1.000000 -0.923880
v -0.195089 -1.000000 -0.980786
vt 0.179915 0.456380
vt 0.150026 0.904414
vt 0.149201 0.458683
vt 0.741751 0.018586
vt 0.768259 0.463529
vt 0.710953 0.018171
vt 0.767982 0.023499
vt 0.676772 0.022271
vt 0.214283 0.458376
vt 0.250984 0.464593
vt 0.288607 0.474793
vt 0.325708 0.488584
vt 0.360859 0.505435
vt 0.392710 0.524699
vt 0.420037 0.545636
vt 0.485058 0.554010
vt 0.701580 0.949228
vt 0.456380 0.573057
vt 0.518136 0.536938
vt 0.554343 0.522496
vt 0.592289 0.511239
vt 0.630515 0.503600
vt 0.667552 0.499872
vt 0.701976 0.500199
vt 0.949977 0.898851
vt 0.739145 0.499872
vt 0.981829 0.879586
vt 0.914826 0.915702
vt 0.877726 0.929492
vt 0.840102 0.939692
vt 0.803401 0.945910
vt 0.769033 0.947905
vt 0.738319 0.945603
vt 0.476756 0.121984
vt 0.456380 0.145082
vt 0.502748 0.099411
vt 0.533358 0.078229
vt 0.567409 0.059255
vt 0.603594 0.043215
vt 0.640521 0.030727
vt 0.041040 0.314282
vt 0.025893 0.277714
vt 0.063029 0.347192
vt 0.018171 0.238895
vt 0.018171 0.199314
vt 0.025893 0.160494
vt 0.041040 0.123927
vt 0.063030 0.091017
vt 0.091017 0.063030
vt 0.123927 0.041040
vt 0.160494 0.025893
vt 0.199314 0.018171
vt 0.238895 0.018171
vt 0.277714 0.025893
vt 0.314282 0.041040
vt 0.347192 0.063030
vt 0.375179 0.091017
vt 0.397169 0.123927
vt 0.412316 0.160495
vt 0.420037 0.199314
vt 0.420037 0.238895
vt 0.412316 0.277715
vt 0.397169 0.314282
vt 0.375179 0.347192
vt 0.347192 0.375179
vt 0.314282 0.397169
vt 0.277714 0.412316
vt 0.238894 0.420038
vt 0.199314 0.420037
vt 0.160494 0.412316
vt 0.123927 0.397169
vt 0.091017 0.375179
vn -0.330668 -0.503281 -0.798334
vn 0.000000 1.000000 0.000000
vn -0.168554 -0.503281 -0.847499
vn 0.000000 -0.503281 -0.864101
vn 0.168554 -0.503281 -0.847499
vn 0.330668 -0.503281 -0.798334
vn -0.480056 -0.503281 -0.718467
vn -0.611011 -0.503281 -0.611011
vn -0.718467 -0.503281 -0.480056
vn -0.798334 -0.503281 -0.330668
vn -0.847499 -0.503281 -0.168554
vn -0.864101 -0.503281 0.000000
vn -0.847499 -0.503281 0.168554
vn -0.798334 -0.503281 0.330668
vn -0.718467 -0.503281 0.480056
vn -0.611011 -0.503281 0.611011
vn -0.480056 -0.503281 0.718467
vn -0.330668 -0.503281 0.798334
vn -0.168554 -0.503281 0.847499
vn 0.000000 -0.503281 0.864101
vn 0.168554 -0.503281 0.847499
vn 0.330668 -0.503281 0.798334
vn 0.480056 -0.503281 0.718467
vn 0.611011 -0.503281 0.611011
vn 0.718467 -0.503281 0.480056
vn 0.798334 -0.503281 0.330668
vn 0.847499 -0.503281 0.168554
vn 0.864101 -0.503281 0.000000
vn 0.847499 -0.503281 -0.168554
vn 0.798334 -0.503281 -0.330668
vn 0.718467 -0.503281 -0.480056
vn 0.611011 -0.503281 -0.611011
vn 0.480056 -0.503281 -0.718467
s 1
f 32/1/1 10/2/2 33/3/3
f 1/4/4 10/5/2 2/6/5
f 33/7/3 10/5/2 1/4/4
f 2/6/5 10/5/2 3/8/6
f 31/9/7 10/2/2 32/1/1
f 30/10/8 10/2/2 31/9/7
f 29/11/9 10/2/2 30/10/8
f 28/12/10 10/2/2 29/11/9
f 27/13/11 10/2/2 28/12/10
f 26/14/12 10/2/2 27/13/11
f 25/15/13 10/2/2 26/14/12
f 24/16/14 10/17/2 25/18/13
f 23/19/15 10/17/2 24/16/14
f 22/20/16 10/17/2 23/19/15
f 21/21/17 10/17/2 22/20/16
f 20/22/18 10/17/2 21/21/17
f 19/23/19 10/17/2 20/22/18
f 18/24/20 10/17/2 19/23/19
f 17/25/21 10/26/2 18/27/20
f 16/28/22 10/26/2 17/25/21
f 15/29/23 10/26/2 16/28/22
f 14/30/24 10/26/2 15/29/23
f 13/31/25 10/26/2 14/30/24
f 12/32/26 10/26/2 13/31/25
f 11/33/27 10/26/2 12/32/26
f 9/34/28 10/5/2 11/35/27
f 8/36/29 10/5/2 9/34/28
f 7/37/30 10/5/2 8/36/29
f 6/38/31 10/5/2 7/37/30
f 5/39/32 10/5/2 6/38/31
f 4/40/33 10/5/2 5/39/32
f 3/8/6 10/5/2 4/40/33
f 1/41/4 2/42/5 33/43/3
f 2/42/5 3/44/6 33/43/3
f 3/44/6 4/45/33 33/43/3
f 4/45/33 5/46/32 33/43/3
f 5/46/32 6/47/31 33/43/3
f 6/47/31 7/48/30 33/43/3
f 7/48/30 8/49/29 33/43/3
f 8/49/29 9/50/28 33/43/3
f 9/50/28 11/51/27 33/43/3
f 11/51/27 12/52/26 33/43/3
f 12/52/26 13/53/25 33/43/3
f 13/53/25 14/54/24 33/43/3
f 14/54/24 15/55/23 33/43/3
f 15/55/23 16/56/22 33/43/3
f 16/56/22 17/57/21 33/43/3
f 17/57/21 18/58/20 33/43/3
f 18/58/20 19/59/19 33/43/3
f 19/59/19 20/60/18 33/43/3
f 20/60/18 21/61/17 33/43/3
f 21/61/17 22/62/16 33/43/3
f 22/62/16 23/63/15 33/43/3
f 23/63/15 24/64/14 33/43/3
f 24/64/14 25/65/13 33/43/3
f 25/65/13 26/66/12 33/43/3
f 26/66/12 27/67/11 33/43/3
f 27/67/11 28/68/10 33/43/3
f 28/68/10 29/69/9 33/43/3
f 29/69/9 30/70/8 33/43/3
f 30/70/8 31/71/7 32/72/1
f 33/43/3 30/70/8 32/72/1
