# Blender v2.67 (sub 0) OBJ File: 'crate 8 b.blend'
# www.blender.org
v -0.800000 -0.900000 -0.800000
v -0.800000 -0.900000 0.800000
v 0.800000 -0.900000 0.800000
v -0.600000 -0.990000 -0.800000
v -0.800000 -0.990000 -0.600000
v 0.800000 -0.990000 0.600000
v 0.600000 -0.990000 0.800000
v 0.800000 -0.990000 0.800000
v -0.800000 -0.990000 -0.800000
v 1.000000 -1.000000 -1.000000
v 0.800000 -1.000000 -1.000000
v -1.000000 -1.000000 -1.000000
v 1.000000 -1.000000 -0.800000
v -0.800000 -1.000000 0.800000
v 0.800000 -1.000000 0.800000
v 0.800000 -1.000000 -0.800000
v -0.800000 -1.000000 -0.800000
v 0.800000 -0.900000 -0.800000
v 0.600000 -0.900000 0.800000
v 0.800000 -0.900000 0.600000
v -0.800000 -0.900000 -0.600000
v -0.600000 -0.900000 -0.800000
v 0.800000 0.900000 -0.800000
v 0.800000 0.900000 0.800000
v -0.800000 0.900000 0.800000
v 0.600000 0.990000 -0.800000
v 0.800000 0.990000 -0.600000
v -0.800000 0.990000 0.600000
v -0.600000 0.990000 0.800000
v -0.800000 0.990000 0.800000
v 0.800000 0.990000 -0.800000
v 0.800000 1.000000 -1.000000
v 0.800000 1.000000 1.000000
v 1.000000 1.000000 1.000000
v 1.000000 1.000000 0.800000
v 1.000000 1.000000 -1.000000
v 1.000000 1.000000 -0.800000
v 0.800000 1.000000 0.800000
v -0.800000 1.000000 0.800000
v -0.800000 1.000000 -0.800000
v 0.800000 1.000000 -0.800000
v -0.800000 0.900000 -0.800000
v -0.600000 0.900000 0.800000
v -0.800000 0.900000 0.600000
v 0.800000 0.900000 -0.600000
v 0.600000 0.900000 -0.800000
v 0.800000 -0.800000 -0.900000
v 0.800000 0.800000 -0.900000
v -0.800000 0.800000 -0.900000
v 0.600000 -0.800000 -0.990000
v 0.800000 -0.600000 -0.990000
v -0.800000 0.600000 -0.990000
v -0.600000 0.800000 -0.990000
v -0.800000 0.800000 -0.990000
v 0.800000 -0.800000 -0.990000
v -0.800000 1.000000 -1.000000
v -0.800000 -1.000000 -1.000000
v 0.800000 0.800000 -1.000000
v -0.800000 0.800000 -1.000000
v -0.800000 -0.800000 -1.000000
v 0.800000 -0.800000 -1.000000
v -0.800000 -0.800000 -0.900000
v -0.600000 0.800000 -0.900000
v -0.800000 0.600000 -0.900000
v 0.800000 -0.600000 -0.900000
v 0.600000 -0.800000 -0.900000
v -0.900000 -0.800000 -0.800000
v -0.900000 0.800000 -0.800000
v -0.900000 0.800000 0.800000
v -0.990000 -0.800000 -0.600000
v -0.990000 -0.600000 -0.800000
v -0.990000 0.600000 0.800000
v -0.990000 0.800000 0.600000
v -0.990000 0.800000 0.800000
v -0.990000 -0.800000 -0.800000
v -1.000000 -1.000000 -0.800000
v -1.000000 1.000000 -0.800000
v -1.000000 1.000000 -1.000000
v -1.000000 1.000000 1.000000
v -1.000000 0.800000 -1.000000
v -1.000000 1.000000 0.800000
v -1.000000 -1.000000 0.800000
v -1.000000 -0.800000 -1.000000
v -1.000000 0.800000 -0.800000
v -1.000000 0.800000 0.800000
v -1.000000 -0.800000 0.800000
v -1.000000 -0.800000 -0.800000
v -0.900000 -0.800000 0.800000
v -0.900000 0.800000 0.600000
v -0.900000 0.600000 0.800000
v -0.900000 -0.600000 -0.800000
v -0.900000 -0.800000 -0.600000
v 0.900000 -0.800000 0.800000
v 0.900000 0.800000 0.800000
v 0.900000 0.800000 -0.800000
v 0.990000 -0.800000 0.600000
v 0.990000 -0.600000 0.800000
v 0.990000 0.600000 -0.800000
v 0.990000 0.800000 -0.600000
v 0.990000 0.800000 -0.800000
v 0.990000 -0.800000 0.800000
v 1.000000 -1.000000 0.800000
v 1.000000 0.800000 -1.000000
v 1.000000 0.800000 1.000000
v 1.000000 -0.800000 1.000000
v 1.000000 -0.800000 -1.000000
v 1.000000 0.800000 0.800000
v 1.000000 0.800000 -0.800000
v 1.000000 -0.800000 -0.800000
v 1.000000 -0.800000 0.800000
v 0.900000 -0.800000 -0.800000
v 0.900000 0.800000 -0.600000
v 0.900000 0.600000 -0.800000
v 0.900000 -0.600000 0.800000
v 0.900000 -0.800000 0.600000
v -0.800000 -0.800000 0.900000
v -0.800000 0.800000 0.900000
v 0.800000 0.800000 0.900000
v -0.600000 -0.800000 0.990000
v -0.800000 -0.600000 0.990000
v 0.800000 0.600000 0.990000
v 0.600000 0.800000 0.990000
v 0.800000 0.800000 0.990000
v -0.800000 -0.800000 0.990000
v -0.800000 -1.000000 1.000000
v -0.800000 1.000000 1.000000
v -1.000000 0.800000 1.000000
v 1.000000 -1.000000 1.000000
v 0.800000 -1.000000 1.000000
v -1.000000 -1.000000 1.000000
v -1.000000 -0.800000 1.000000
v -0.800000 0.800000 1.000000
v 0.800000 0.800000 1.000000
v 0.800000 -0.800000 1.000000
v -0.800000 -0.800000 1.000000
v 0.800000 -0.800000 0.900000
v 0.600000 0.800000 0.900000
v 0.800000 0.600000 0.900000
v -0.800000 -0.600000 0.900000
v -0.600000 -0.800000 0.900000
vt 0.531248 0.531249
vt -0.468702 0.531248
vt 0.531248 0.468752
vt 0.062553 0.000035
vt 0.937491 0.000337
vt 0.999965 0.062854
vt 0.999900 0.999900
vt 0.874925 0.999900
vt 0.999900 0.874925
vt 0.899975 0.100025
vt 0.899975 0.000032
vt 0.999968 0.000032
vt 0.999975 0.062522
vt 0.874982 0.000025
vt 0.999975 0.000025
vt 0.406255 0.468752
vt 0.125018 0.062522
vt 0.000021 0.000021
vt 0.999979 0.000021
vt 0.999979 0.045476
vt 0.000021 0.045476
vt 0.999979 0.000023
vt -0.468702 0.468752
vt -0.343708 0.468752
vt 0.000035 0.062509
vt 0.100025 0.000034
vt 0.100025 0.100027
vt 0.000032 0.100027
vt 0.000032 0.000034
vt 0.562496 0.437504
vt -0.437434 0.437505
vt -0.437434 0.562496
vt 0.000021 0.045475
vt 0.062509 0.125027
vt 0.125074 0.000101
vt 0.000100 0.125075
vt 0.000100 0.000101
vt 0.000025 0.062522
vt 0.000025 0.000025
vt 0.000100 0.999900
vt 0.000032 0.000033
vt 0.562496 0.562496
vt 0.899975 0.100026
vt 0.100025 0.000033
vt 0.999968 0.100025
vt 0.937448 0.125328
vt 0.999900 0.000100
vt 0.000025 0.062523
vt 0.000025 0.000026
vn 1.000000 0.000000 -0.000000
vn -0.000001 -1.000000 0.000001
vn 0.000000 -1.000000 0.000000
vn -0.000000 -0.000000 -1.000000
vn -1.000000 0.000000 0.000000
vn 0.000000 -0.000000 1.000000
vn 0.707107 0.000000 -0.707107
vn -0.707107 0.000000 0.707107
vn 0.000000 1.000000 -0.000000
vn -0.707107 0.000000 -0.707107
vn 0.707107 0.000000 0.707107
vn 0.000000 0.000001 -1.000000
vn -0.707107 -0.707107 0.000000
vn 0.707107 0.707107 -0.000000
vn 0.000000 -0.707107 0.707107
vn 0.000000 0.707107 -0.707107
vn 1.000000 0.000000 0.000001
vn -0.000000 -0.707107 -0.707107
vn 0.000000 0.707107 0.707107
vn 0.000000 -0.000001 1.000000
vn 0.707107 -0.707107 0.000000
vn -0.707107 0.707107 0.000000
vn -0.000001 -1.000000 0.000000
vn 0.000000 -1.000000 -0.000001
vn -0.000001 -1.000000 -0.000001
vn -0.000001 1.000000 0.000001
vn -0.000000 1.000000 -0.000001
vn 0.000000 1.000000 0.000001
vn -0.000001 1.000000 0.000000
vn 0.000000 -0.000001 -1.000000
vn -0.000000 -0.000002 -1.000000
vn -0.000001 0.000000 -1.000000
vn 1.000000 0.000001 -0.000000
vn 1.000000 -0.000002 0.000000
vn 1.000000 -0.000001 0.000000
vn -0.000001 0.000001 1.000000
vn -0.000000 0.000001 1.000000
vn -0.000001 -0.000000 1.000000
vn 0.000000 -1.000000 0.000001
vn 0.000000 0.000000 0.000000
vn 0.000000 0.447214 -0.894427
vn 0.000001 -1.000000 0.000000
vn 0.000001 -1.000000 0.000001
vn -0.000001 -0.000001 -1.000000
vn 1.000000 0.000000 -0.000001
vn -0.000000 0.000002 1.000000
vn -0.000001 -0.000001 1.000000
s off
f 14/1/1 17/2/1 2/3/1
f 4/4/2 6/5/2 8/6/2
f 3/7/3 19/8/3 20/9/3
f 16/10/3 11/11/3 10/12/3
f 15/13/4 19/14/4 3/15/4
f 15/1/5 3/3/5 20/16/5
f 18/13/6 22/17/6 16/15/6
f 22/18/7 20/19/7 6/20/7
f 19/20/8 21/21/8 7/22/8
f 41/2/5 23/23/5 45/24/5
f 31/25/9 26/4/9 28/5/9
f 25/7/9 43/8/9 44/9/9
f 38/26/9 33/27/9 34/28/9
f 41/27/9 37/28/9 36/29/9
f 35/30/9 37/31/9 41/32/9
f 39/13/4 43/14/4 25/15/4
f 39/1/1 25/3/1 40/2/1
f 42/13/6 46/17/6 40/15/6
f 46/18/10 44/19/10 26/33/10
f 43/20/11 45/21/11 27/18/11
f 61/2/5 47/23/5 65/24/5
f 55/25/12 50/4/12 51/34/12
f 66/35/4 65/36/4 47/37/4
f 58/38/3 48/39/3 59/13/3
f 59/1/1 49/3/1 60/2/1
f 62/13/9 66/17/9 60/15/9
f 66/18/13 64/19/13 50/33/13
f 63/20/14 65/21/14 51/18/14
f 84/1/6 87/2/6 68/3/6
f 75/25/5 70/4/5 71/34/5
f 89/8/5 68/40/5 91/36/5
f 84/26/5 77/27/5 80/41/5
f 80/30/5 83/31/5 84/42/5
f 85/11/5 81/43/5 84/26/5
f 82/11/5 86/10/5 76/44/5
f 84/38/3 68/39/3 85/13/3
f 85/1/4 69/3/4 86/2/4
f 88/13/9 92/17/9 86/15/9
f 92/18/15 90/19/15 72/20/15
f 89/20/16 91/21/16 71/18/16
f 107/1/4 110/2/4 94/3/4
f 101/25/17 96/4/17 97/34/17
f 95/7/17 112/8/17 113/9/17
f 104/30/1 105/31/1 110/32/1
f 103/30/1 108/42/1 109/32/1
f 107/38/3 94/39/3 108/13/3
f 108/1/6 95/3/6 109/2/6
f 111/13/9 115/17/9 109/15/9
f 115/18/18 113/19/18 98/20/18
f 112/20/19 114/21/19 97/18/19
f 132/1/1 135/2/1 117/3/1
f 124/25/20 119/4/20 120/34/20
f 118/7/20 137/8/20 138/9/20
f 135/27/6 131/28/6 130/29/6
f 127/30/6 131/31/6 135/32/6
f 129/11/6 134/10/6 135/27/6
f 132/38/3 117/39/3 133/13/3
f 133/1/5 118/3/5 138/16/5
f 136/13/9 140/17/9 134/15/9
f 140/18/21 138/19/21 121/20/21
f 137/20/22 139/21/22 122/22/22
f 15/11/23 102/12/23 128/45/23
f 14/26/24 125/27/24 130/28/24
f 17/27/25 76/28/25 57/44/25
f 82/30/23 76/31/23 17/32/23
f 15/11/24 129/43/24 14/26/24
f 102/30/23 15/42/23 16/32/23
f 11/11/3 16/10/3 57/44/3
f 39/11/26 81/12/26 126/43/26
f 40/10/27 56/11/27 78/12/27
f 39/11/28 126/43/28 33/27/28
f 81/30/29 39/42/29 77/31/29
f 56/11/27 40/10/27 41/27/27
f 59/11/30 80/12/30 56/43/30
f 58/26/31 32/27/31 36/28/31
f 60/10/32 57/11/32 83/45/32
f 61/27/4 106/28/4 10/29/4
f 103/30/4 106/31/4 61/32/4
f 59/11/30 56/43/30 32/27/30
f 80/30/4 59/42/4 83/31/4
f 57/11/4 60/10/4 61/27/4
f 85/11/5 127/12/5 81/43/5
f 86/10/5 82/11/5 131/45/5
f 87/27/5 83/28/5 76/44/5
f 127/30/5 85/42/5 131/31/5
f 108/11/33 103/12/33 37/43/33
f 107/26/34 35/27/34 34/28/34
f 109/10/35 13/11/35 10/12/35
f 110/27/33 105/28/33 128/29/33
f 108/11/33 37/43/33 35/27/33
f 13/11/35 109/10/35 110/27/35
f 133/11/36 104/12/36 33/43/36
f 132/26/37 126/27/37 79/28/37
f 134/10/6 129/11/6 128/12/6
f 133/11/37 33/43/37 126/27/37
f 104/30/38 133/42/38 105/31/38
f 17/2/1 1/23/1 2/3/1
f 1/23/1 21/24/1 2/3/1
f 5/34/2 9/25/2 7/46/2
f 9/25/3 4/4/3 7/46/3
f 4/4/3 8/6/3 7/46/3
f 19/8/3 2/40/3 20/9/3
f 2/40/3 21/36/3 20/9/3
f 20/9/3 21/36/3 18/47/3
f 21/36/39 1/37/39 18/47/39
f 1/37/40 22/35/40 18/47/40
f 13/45/3 16/10/3 10/12/3
f 14/38/4 2/39/4 15/13/4
f 2/39/4 19/14/4 15/13/4
f 16/2/5 15/1/5 18/23/5
f 15/1/5 20/16/5 18/23/5
f 22/17/6 1/48/6 17/49/6
f 16/15/6 22/17/6 17/49/6
f 4/33/7 22/18/7 6/20/7
f 21/21/8 5/18/8 7/22/8
f 38/1/5 41/2/5 24/3/5
f 41/2/5 45/24/5 24/3/5
f 29/46/9 27/34/9 30/6/9
f 27/34/9 31/25/9 28/5/9
f 30/6/9 27/34/9 28/5/9
f 43/8/9 24/40/9 44/9/9
f 24/40/9 45/36/9 44/9/9
f 45/36/9 23/37/9 44/9/9
f 23/37/41 46/35/41 42/47/41
f 44/9/9 23/37/9 42/47/9
f 35/41/9 38/26/9 34/28/9
f 32/44/9 41/27/9 36/29/9
f 38/42/9 35/30/9 41/32/9
f 38/38/4 24/39/4 39/13/4
f 24/39/4 43/14/4 39/13/4
f 25/3/22 44/16/22 42/23/22
f 40/2/1 25/3/1 42/23/1
f 46/17/6 23/48/6 41/49/6
f 40/15/6 46/17/6 41/49/6
f 44/19/10 28/20/10 26/33/10
f 29/22/11 43/20/11 27/18/11
f 58/1/5 61/2/5 48/3/5
f 61/2/5 65/24/5 48/3/5
f 52/5/12 54/6/12 53/46/12
f 50/4/4 52/5/4 53/46/4
f 51/34/4 50/4/4 53/46/4
f 49/7/12 63/8/12 64/9/12
f 48/40/4 65/36/4 66/35/4
f 63/8/12 48/40/12 64/9/12
f 48/40/4 66/35/4 64/9/4
f 66/35/4 62/47/4 64/9/4
f 48/39/9 63/14/9 49/15/9
f 59/13/3 48/39/3 49/15/3
f 49/3/5 64/16/5 62/23/5
f 60/2/1 49/3/1 62/23/1
f 66/17/9 47/48/9 61/49/9
f 60/15/9 66/17/9 61/49/9
f 64/19/13 52/20/13 50/33/13
f 53/22/14 63/20/14 51/18/14
f 87/2/6 67/23/6 68/3/6
f 67/23/40 91/24/40 68/3/40
f 72/5/5 74/6/5 73/46/5
f 70/4/5 72/5/5 71/34/5
f 72/5/5 73/46/5 71/34/5
f 92/35/5 91/36/5 67/37/5
f 90/9/5 92/35/5 88/47/5
f 69/7/5 89/8/5 90/9/5
f 89/8/5 91/36/5 90/9/5
f 91/36/5 92/35/5 90/9/5
f 77/27/5 78/28/5 80/41/5
f 83/31/5 87/32/5 84/42/5
f 81/43/5 77/27/5 84/26/5
f 86/10/5 87/27/5 76/44/5
f 68/39/40 89/14/40 69/15/40
f 85/13/3 68/39/3 69/15/3
f 69/3/40 90/16/40 88/23/40
f 86/2/4 69/3/4 88/23/4
f 92/17/9 67/48/9 87/49/9
f 86/15/9 92/17/9 87/49/9
f 70/33/15 92/18/15 72/20/15
f 73/22/16 89/20/16 71/18/16
f 110/2/4 93/23/4 94/3/4
f 93/23/40 114/24/40 94/3/40
f 96/4/1 98/5/1 97/34/1
f 98/5/17 100/6/17 99/46/17
f 97/34/1 98/5/1 99/46/1
f 112/8/33 94/40/33 113/9/33
f 94/40/1 114/36/1 113/9/1
f 114/36/1 93/37/1 113/9/1
f 93/37/3 115/35/3 111/47/3
f 113/9/1 93/37/1 111/47/1
f 107/42/1 104/30/1 110/32/1
f 106/31/1 103/30/1 109/32/1
f 94/39/3 112/14/3 95/15/3
f 108/13/3 94/39/3 95/15/3
f 95/3/40 113/16/40 111/23/40
f 109/2/6 95/3/6 111/23/6
f 115/17/9 93/48/9 110/49/9
f 109/15/9 115/17/9 110/49/9
f 96/33/18 115/18/18 98/20/18
f 99/22/19 112/20/19 97/18/19
f 135/2/1 116/23/1 117/3/1
f 116/23/1 139/24/1 117/3/1
f 119/4/6 121/5/6 120/34/6
f 121/5/20 123/6/20 122/46/20
f 120/34/6 121/5/6 122/46/6
f 137/8/20 117/40/20 138/9/20
f 117/40/6 139/36/6 138/9/6
f 139/36/6 116/37/6 138/9/6
f 116/37/40 140/35/40 136/47/40
f 138/9/6 116/37/6 136/47/6
f 125/44/6 135/27/6 130/29/6
f 132/42/6 127/30/6 135/32/6
f 125/44/6 129/11/6 135/27/6
f 117/39/40 137/14/40 118/15/40
f 133/13/3 117/39/3 118/15/3
f 134/2/5 133/1/5 136/23/5
f 133/1/5 138/16/5 136/23/5
f 140/17/9 116/48/9 135/49/9
f 134/15/9 140/17/9 135/49/9
f 119/33/21 140/18/21 121/20/21
f 139/21/22 120/18/22 122/22/22
f 129/43/24 15/11/24 128/45/24
f 82/41/42 14/26/42 130/28/42
f 76/28/43 12/29/43 57/44/43
f 14/42/42 82/30/42 17/32/42
f 129/43/24 125/27/24 14/26/24
f 13/31/3 102/30/3 16/32/3
f 16/10/24 17/27/24 57/44/24
f 81/12/9 79/45/9 126/43/9
f 77/45/29 40/10/29 78/12/29
f 38/26/9 39/11/9 33/27/9
f 39/42/29 40/32/29 77/31/29
f 32/44/9 56/11/9 41/27/9
f 80/12/32 78/45/32 56/43/32
f 103/41/44 58/26/44 36/28/44
f 57/11/32 12/12/32 83/45/32
f 11/44/4 61/27/4 10/29/4
f 58/42/32 103/30/32 61/32/32
f 58/26/31 59/11/31 32/27/31
f 59/42/32 60/32/32 83/31/32
f 11/44/4 57/11/4 61/27/4
f 127/12/5 79/45/5 81/43/5
f 82/11/5 130/12/5 131/45/5
f 83/28/5 12/29/5 76/44/5
f 85/42/5 86/32/5 131/31/5
f 103/12/33 36/45/33 37/43/33
f 104/41/34 107/26/34 34/28/34
f 106/45/35 109/10/35 10/12/35
f 102/44/45 110/27/45 128/29/45
f 107/26/34 108/11/34 35/27/34
f 102/44/1 13/11/1 110/27/1
f 104/12/46 34/45/46 33/43/46
f 127/41/37 132/26/37 79/28/37
f 105/45/47 134/10/47 128/12/47
f 132/26/37 133/11/37 126/27/37
f 133/42/38 134/32/38 105/31/38
