# Blender v2.67 (sub 0) OBJ File: 'Shield 2.blend'
# www.blender.org
v 0.000000 -0.500000 -0.500000
v 0.000000 0.500000 -0.500000
v 0.097545 -0.500000 -0.490393
v 0.097545 0.500000 -0.490393
v 0.191342 -0.500000 -0.461940
v 0.191342 0.500000 -0.461940
v 0.277785 -0.500000 -0.415735
v 0.277785 0.500000 -0.415735
v 0.353553 -0.500000 -0.353553
v 0.353553 0.500000 -0.353553
v 0.415735 -0.500000 -0.277785
v 0.415735 0.500000 -0.277785
v 0.461940 -0.500000 -0.191342
v 0.461940 0.500000 -0.191342
v 0.490393 -0.500000 -0.097545
v 0.490393 0.500000 -0.097545
v 0.500000 -0.500000 -0.000000
v 0.500000 0.500000 -0.000000
v 0.490393 -0.500000 0.097545
v 0.490393 0.500000 0.097545
v 0.461940 -0.500000 0.191342
v 0.461940 0.500000 0.191342
v 0.415735 -0.500000 0.277785
v 0.415735 0.500000 0.277785
v 0.353553 -0.500000 0.353553
v 0.353553 0.500000 0.353553
v 0.277785 -0.500000 0.415735
v 0.277785 0.500000 0.415735
v 0.191342 -0.500000 0.461940
v 0.191342 0.500000 0.461940
v 0.097545 -0.500000 0.490393
v 0.097545 0.500000 0.490393
v -0.000000 -0.500000 0.500000
v -0.000000 0.500000 0.500000
v -0.097545 -0.500000 0.490393
v -0.097545 0.500000 0.490393
v -0.191342 -0.500000 0.461940
v -0.191342 0.500000 0.461940
v -0.277785 -0.500000 0.415735
v -0.277785 0.500000 0.415735
v -0.353554 -0.500000 0.353553
v -0.353554 0.500000 0.353553
v -0.415735 -0.500000 0.277785
v -0.415735 0.500000 0.277785
v -0.461940 -0.500000 0.191341
v -0.461940 0.500000 0.191341
v -0.490393 -0.500000 0.097545
v -0.490393 0.500000 0.097545
v -0.500000 -0.500000 -0.000000
v -0.500000 0.500000 -0.000000
v -0.490393 -0.500000 -0.097546
v -0.490393 0.500000 -0.097546
v -0.461940 -0.500000 -0.191342
v -0.461940 0.500000 -0.191342
v -0.415734 -0.500000 -0.277786
v -0.415734 0.500000 -0.277786
v -0.353553 -0.500000 -0.353554
v -0.353553 0.500000 -0.353554
v -0.277785 -0.500000 -0.415735
v -0.277785 0.500000 -0.415735
v -0.191341 -0.500000 -0.461940
v -0.191341 0.500000 -0.461940
v -0.097544 -0.500000 -0.490393
v -0.097544 0.500000 -0.490393
vt 0.544558 0.370104
vt 0.543517 0.030975
vt 0.576758 0.030873
vt 0.577798 0.370002
vt 0.609360 0.030773
vt 0.610400 0.369902
vt 0.640070 0.030679
vt 0.641110 0.369807
vt 0.667708 0.030594
vt 0.668748 0.369723
vt 0.691213 0.030522
vt 0.968438 0.030666
vt 0.969478 0.369795
vt 0.941840 0.369880
vt 0.940799 0.030751
vt 0.911129 0.369974
vt 0.910089 0.030845
vt 0.878528 0.370074
vt 0.877487 0.030945
vt 0.845287 0.370176
vt 0.844247 0.031047
vt 0.812685 0.370276
vt 0.811645 0.031147
vt 0.781975 0.370370
vt 0.780935 0.031241
vt 0.754337 0.370455
vt 0.430103 0.771359
vt 0.429063 0.432231
vt 0.456701 0.432146
vt 0.457741 0.771275
vt 0.487411 0.432052
vt 0.488452 0.771180
vt 0.520013 0.431951
vt 0.521053 0.771080
vt 0.553253 0.431850
vt 0.554294 0.770978
vt 0.586896 0.770878
vt 0.585855 0.431749
vt 0.617606 0.770784
vt 0.616565 0.431655
vt 0.645244 0.770699
vt 0.644204 0.431570
vt 0.668749 0.770627
vt 0.968438 0.431498
vt 0.969478 0.770627
vt 0.940799 0.431583
vt 0.941840 0.770712
vt 0.910089 0.431677
vt 0.911130 0.770806
vt 0.877488 0.431777
vt 0.878528 0.770906
vt 0.844247 0.431879
vt 0.845288 0.771008
vt 0.811645 0.431979
vt 0.812686 0.771108
vt 0.780935 0.432074
vt 0.781976 0.771202
vt 0.753297 0.432158
vt 0.754337 0.771287
vt 0.729792 0.432230
vt 0.430103 0.370455
vt 0.429063 0.031326
vt 0.453608 0.370383
vt 0.452567 0.031254
vt 0.481246 0.370298
vt 0.030522 0.182650
vt 0.037007 0.150048
vt 0.030522 0.215891
vt 0.511956 0.370204
vt 0.510916 0.031075
vt 0.480206 0.031169
vt 0.049727 0.677744
vt 0.037007 0.647034
vt 0.068195 0.705382
vt 0.692253 0.369651
vt 0.753297 0.031326
vt 0.667708 0.431498
vt 0.730833 0.771359
vt 0.049727 0.119338
vt 0.068195 0.091700
vt 0.091699 0.068195
vt 0.119338 0.049727
vt 0.150048 0.037007
vt 0.182650 0.030522
vt 0.215891 0.030522
vt 0.248492 0.037007
vt 0.279203 0.049727
vt 0.306841 0.068195
vt 0.330346 0.091699
vt 0.348814 0.119338
vt 0.361534 0.150048
vt 0.368019 0.182650
vt 0.368019 0.215891
vt 0.361534 0.248493
vt 0.348814 0.279203
vt 0.330346 0.306841
vt 0.306841 0.330346
vt 0.279203 0.348814
vt 0.248493 0.361534
vt 0.215891 0.368019
vt 0.182650 0.368019
vt 0.150048 0.361534
vt 0.119338 0.348814
vt 0.091699 0.330346
vt 0.068195 0.306842
vt 0.049727 0.279203
vt 0.037007 0.248493
vt 0.030522 0.614432
vt 0.030522 0.581191
vt 0.037007 0.548589
vt 0.049727 0.517879
vt 0.068195 0.490240
vt 0.091699 0.466736
vt 0.119338 0.448268
vt 0.150048 0.435548
vt 0.182650 0.429063
vt 0.215891 0.429063
vt 0.248493 0.435548
vt 0.279203 0.448268
vt 0.306841 0.466736
vt 0.330346 0.490240
vt 0.348814 0.517879
vt 0.361534 0.548589
vt 0.368019 0.581191
vt 0.368019 0.614432
vt 0.361534 0.647034
vt 0.348814 0.677744
vt 0.330346 0.705383
vt 0.306841 0.728887
vt 0.279203 0.747355
vt 0.248492 0.760075
vt 0.215891 0.766560
vt 0.182650 0.766560
vt 0.150048 0.760075
vt 0.119338 0.747354
vt 0.091699 0.728887
vn 0.000000 -0.685690 -0.727866
vn 0.000000 0.685690 -0.727866
vn 0.142003 0.685690 -0.713889
vn 0.142003 -0.685690 -0.713889
vn 0.278542 0.685690 -0.672475
vn 0.278542 -0.685690 -0.672475
vn 0.404370 0.685690 -0.605213
vn 0.404370 -0.685690 -0.605213
vn 0.514664 0.685690 -0.514664
vn 0.514664 -0.685690 -0.514664
vn 0.605213 0.685690 -0.404370
vn 0.605213 -0.685690 -0.404370
vn 0.672475 0.685690 -0.278542
vn 0.672475 -0.685690 -0.278542
vn 0.713889 0.685690 -0.142003
vn 0.713889 -0.685690 -0.142003
vn 0.727866 0.685690 0.000000
vn 0.727866 -0.685690 0.000000
vn 0.713889 0.685690 0.142003
vn 0.713889 -0.685690 0.142003
vn 0.672475 0.685690 0.278542
vn 0.672475 -0.685690 0.278542
vn 0.605213 0.685690 0.404370
vn 0.605213 -0.685690 0.404370
vn 0.514664 0.685690 0.514664
vn 0.514664 -0.685690 0.514664
vn 0.404370 0.685690 0.605213
vn 0.404370 -0.685690 0.605213
vn 0.278542 0.685690 0.672475
vn 0.278542 -0.685690 0.672475
vn 0.142003 0.685690 0.713889
vn 0.142003 -0.685690 0.713889
vn 0.000000 0.685690 0.727866
vn 0.000000 -0.685690 0.727866
vn -0.142003 -0.685690 0.713889
vn -0.142003 0.685690 0.713889
vn -0.278542 -0.685690 0.672475
vn -0.278542 0.685690 0.672475
vn -0.404370 -0.685690 0.605213
vn -0.404370 0.685690 0.605213
vn -0.514695 -0.685690 0.514664
vn -0.514664 0.685690 0.514664
vn -0.605213 -0.685690 0.404370
vn -0.605213 0.685690 0.404370
vn -0.672475 -0.685690 0.278542
vn -0.672475 0.685690 0.278542
vn -0.713889 -0.685690 0.142003
vn -0.713889 0.685690 0.142003
vn -0.727866 -0.685690 0.000000
vn -0.727866 0.685690 0.000000
vn -0.713889 -0.685690 -0.142003
vn -0.713889 0.685690 -0.142003
vn -0.672475 -0.685690 -0.278542
vn -0.672475 0.685690 -0.278542
vn -0.605213 -0.685690 -0.404370
vn -0.605213 0.685690 -0.404370
vn -0.514664 -0.685690 -0.514695
vn -0.514664 0.685690 -0.514695
vn -0.404370 -0.685690 -0.605213
vn -0.404370 0.685690 -0.605213
vn -0.278542 -0.685690 -0.672475
vn -0.142003 -0.685690 -0.713889
vn -0.142003 0.685690 -0.713889
vn -0.278542 0.685690 -0.672475
s 1
f 1/1/1 2/2/2 4/3/3
f 3/4/4 4/3/3 6/5/5
f 5/6/6 6/5/5 8/7/7
f 7/8/8 8/7/7 10/9/9
f 9/10/10 10/9/9 12/11/11
f 11/12/12 12/13/11 14/14/13
f 13/15/14 14/14/13 16/16/15
f 15/17/16 16/16/15 18/18/17
f 17/19/18 18/18/17 20/20/19
f 19/21/20 20/20/19 22/22/21
f 21/23/22 22/22/21 24/24/23
f 23/25/24 24/24/23 26/26/25
f 25/27/26 26/28/25 28/29/27
f 27/30/28 28/29/27 30/31/29
f 29/32/30 30/31/29 32/33/31
f 31/34/32 32/33/31 34/35/33
f 33/36/34 34/35/33 35/37/35
f 35/37/35 36/38/36 37/39/37
f 37/39/37 38/40/38 39/41/39
f 39/41/39 40/42/40 41/43/41
f 41/44/41 42/45/42 43/46/43
f 43/46/43 44/47/44 45/48/45
f 45/48/45 46/49/46 47/50/47
f 47/50/47 48/51/48 49/52/49
f 49/52/49 50/53/50 51/54/51
f 51/54/51 52/55/52 53/56/53
f 53/56/53 54/57/54 55/58/55
f 55/58/55 56/59/56 57/60/57
f 57/61/57 58/62/58 59/63/59
f 59/63/59 60/64/60 61/65/61
f 4/66/3 2/67/2 6/68/5
f 63/69/62 64/70/63 1/1/1
f 61/65/61 62/71/64 63/69/62
f 1/72/1 3/73/4 63/74/62
f 3/4/4 1/1/1 4/3/3
f 5/6/6 3/4/4 6/5/5
f 7/8/8 5/6/6 8/7/7
f 9/10/10 7/8/8 10/9/9
f 11/75/12 9/10/10 12/11/11
f 13/15/14 11/12/12 14/14/13
f 15/17/16 13/15/14 16/16/15
f 17/19/18 15/17/16 18/18/17
f 19/21/20 17/19/18 20/20/19
f 21/23/22 19/21/20 22/22/21
f 23/25/24 21/23/22 24/24/23
f 25/76/26 23/25/24 26/26/25
f 27/30/28 25/27/26 28/29/27
f 29/32/30 27/30/28 30/31/29
f 31/34/32 29/32/30 32/33/31
f 33/36/34 31/34/32 34/35/33
f 34/35/33 36/38/36 35/37/35
f 36/38/36 38/40/38 37/39/37
f 38/40/38 40/42/40 39/41/39
f 40/42/40 42/77/42 41/43/41
f 42/45/42 44/47/44 43/46/43
f 44/47/44 46/49/46 45/48/45
f 46/49/46 48/51/48 47/50/47
f 48/51/48 50/53/50 49/52/49
f 50/53/50 52/55/52 51/54/51
f 52/55/52 54/57/54 53/56/53
f 54/57/54 56/59/56 55/58/55
f 56/59/56 58/78/58 57/60/57
f 58/62/58 60/64/60 59/63/59
f 60/64/60 62/71/64 61/65/61
f 2/67/2 64/79/63 6/68/5
f 64/79/63 62/80/64 6/68/5
f 62/80/64 60/81/60 6/68/5
f 60/81/60 58/82/58 6/68/5
f 58/82/58 56/83/56 6/68/5
f 56/83/56 54/84/54 6/68/5
f 54/84/54 52/85/52 6/68/5
f 52/85/52 50/86/50 6/68/5
f 50/86/50 48/87/48 6/68/5
f 48/87/48 46/88/46 6/68/5
f 46/88/46 44/89/44 6/68/5
f 44/89/44 42/90/42 6/68/5
f 42/90/42 40/91/40 6/68/5
f 40/91/40 38/92/38 6/68/5
f 38/92/38 36/93/36 6/68/5
f 36/93/36 34/94/33 6/68/5
f 34/94/33 32/95/31 6/68/5
f 32/95/31 30/96/29 6/68/5
f 30/96/29 28/97/27 6/68/5
f 28/97/27 26/98/25 6/68/5
f 26/98/25 24/99/23 6/68/5
f 24/99/23 22/100/21 6/68/5
f 22/100/21 20/101/19 6/68/5
f 20/101/19 18/102/17 6/68/5
f 18/102/17 16/103/15 6/68/5
f 16/103/15 14/104/13 6/68/5
f 14/104/13 12/105/11 6/68/5
f 12/105/11 10/106/9 8/107/7
f 6/68/5 12/105/11 8/107/7
f 64/70/63 2/2/2 1/1/1
f 62/71/64 64/70/63 63/69/62
f 3/73/4 5/108/6 63/74/62
f 5/108/6 7/109/8 63/74/62
f 7/109/8 9/110/10 63/74/62
f 9/110/10 11/111/12 63/74/62
f 11/111/12 13/112/14 63/74/62
f 13/112/14 15/113/16 63/74/62
f 15/113/16 17/114/18 63/74/62
f 17/114/18 19/115/20 63/74/62
f 19/115/20 21/116/22 63/74/62
f 21/116/22 23/117/24 63/74/62
f 23/117/24 25/118/26 63/74/62
f 25/118/26 27/119/28 63/74/62
f 27/119/28 29/120/30 63/74/62
f 29/120/30 31/121/32 63/74/62
f 31/121/32 33/122/34 63/74/62
f 33/122/34 35/123/35 63/74/62
f 35/123/35 37/124/37 63/74/62
f 37/124/37 39/125/39 63/74/62
f 39/125/39 41/126/41 63/74/62
f 41/126/41 43/127/43 63/74/62
f 43/127/43 45/128/45 63/74/62
f 45/128/45 47/129/47 63/74/62
f 47/129/47 49/130/49 63/74/62
f 49/130/49 51/131/51 63/74/62
f 51/131/51 53/132/53 63/74/62
f 53/132/53 55/133/55 63/74/62
f 55/133/55 57/134/57 63/74/62
f 57/134/57 59/135/59 61/136/61
f 63/74/62 57/134/57 61/136/61
